<svg width="62" height="62" viewBox="0 0 62 62" fill="none" xmlns="http://www.w3.org/2000/svg">
<g filter="url(#filter0_d_7_2847)">
<circle cx="31.001" cy="27" r="17" fill="white"/>
</g>
<g clip-path="url(#clip0_7_2847)">
<path d="M34.482 20H28.52C26.5796 20 25.001 21.5786 25.001 23.519V29.4811C25.001 31.4214 26.5796 33 28.52 33H34.4821C36.4224 33 38.001 31.4214 38.001 29.4811V23.519C38.001 21.5786 36.4224 20 34.482 20V20ZM37.2388 29.4811C37.2388 31.0012 36.0021 32.2379 34.482 32.2379H28.52C26.9998 32.2379 25.7631 31.0012 25.7631 29.4811V23.519C25.7631 21.9988 26.9998 20.7621 28.52 20.7621H34.4821C36.0021 20.7621 37.2388 21.9988 37.2388 23.519V29.4811Z" fill="black"/>
<path d="M31.5009 22.9454C29.5408 22.9454 27.9463 24.54 27.9463 26.5C27.9463 28.46 29.5408 30.0546 31.5009 30.0546C33.4609 30.0546 35.0555 28.46 35.0555 26.5C35.0555 24.54 33.4609 22.9454 31.5009 22.9454ZM31.5009 29.2925C29.9612 29.2925 28.7084 28.0398 28.7084 26.5C28.7084 24.9603 29.9612 23.7075 31.5009 23.7075C33.0407 23.7075 34.2933 24.9603 34.2933 26.5C34.2933 28.0398 33.0407 29.2925 31.5009 29.2925Z" fill="black"/>
<path d="M35.1407 21.683C34.5614 21.683 34.0903 22.1542 34.0903 22.7334C34.0903 23.3126 34.5614 23.7838 35.1407 23.7838C35.7199 23.7838 36.1911 23.3126 36.1911 22.7334C36.1911 22.1541 35.7199 21.683 35.1407 21.683ZM35.1407 23.0216C34.9818 23.0216 34.8524 22.8922 34.8524 22.7334C34.8524 22.5744 34.9818 22.4451 35.1407 22.4451C35.2997 22.4451 35.429 22.5744 35.429 22.7334C35.429 22.8922 35.2997 23.0216 35.1407 23.0216Z" fill="black"/>
</g>
<defs>
<filter id="filter0_d_7_2847" x="0.000976562" y="0" width="62" height="62" filterUnits="userSpaceOnUse" color-interpolation-filters="sRGB">
<feFlood flood-opacity="0" result="BackgroundImageFix"/>
<feColorMatrix in="SourceAlpha" type="matrix" values="0 0 0 0 0 0 0 0 0 0 0 0 0 0 0 0 0 0 127 0" result="hardAlpha"/>
<feOffset dy="4"/>
<feGaussianBlur stdDeviation="7"/>
<feColorMatrix type="matrix" values="0 0 0 0 0 0 0 0 0 0 0 0 0 0 0 0 0 0 0.15 0"/>
<feBlend mode="normal" in2="BackgroundImageFix" result="effect1_dropShadow_7_2847"/>
<feBlend mode="normal" in="SourceGraphic" in2="effect1_dropShadow_7_2847" result="shape"/>
</filter>
<clipPath id="clip0_7_2847">
<rect width="13" height="13" fill="white" transform="translate(25.001 20)"/>
</clipPath>
</defs>
</svg>
